<svg xmlns="http://www.w3.org/2000/svg" width="75" height="72" viewBox="0 0 75 72">
  <g id="Group_998" data-name="Group 998" transform="translate(-169 -1744)">
    <ellipse id="Ellipse_6" data-name="Ellipse 6" cx="37.5" cy="36" rx="37.5" ry="36" transform="translate(169 1744)" fill="#707070"/>
    <g id="Group_996" data-name="Group 996" transform="translate(18253.586 -9256.234)">
      <g id="Ellipse_65" data-name="Ellipse 65" transform="translate(-18062.803 11007.421)" fill="#fff" stroke="#707070" stroke-width="1">
        <circle cx="15.087" cy="15.087" r="15.087" stroke="none"/>
        <circle cx="15.087" cy="15.087" r="14.587" fill="none"/>
      </g>
      <g id="Path_1142" data-name="Path 1142" transform="translate(-18070 10180.508)" fill="#fff">
        <path d="M 0.8351075649261475 881.7271118164062 C 0.6714075803756714 881.7271118164062 0.6462475657463074 881.7271118164062 0.5921175479888916 881.5046997070312 C 0.4999975562095642 881.1261596679688 0.4999975562095642 880.4295043945312 0.4999975562095642 879.46533203125 C 0.4999975562095642 876.5067749023438 1.079317569732666 873.636962890625 2.221867561340332 870.9356689453125 C 3.325557470321655 868.3262329101562 4.905677795410156 865.982666015625 6.918337345123291 863.969970703125 C 8.931007385253906 861.9573364257812 11.27458763122559 860.377197265625 13.88398742675781 859.2734985351562 C 16.58527755737305 858.1309814453125 19.45504760742188 857.5516357421875 22.41358757019043 857.5516357421875 C 25.37212753295898 857.5516357421875 28.24189758300781 858.1309814453125 30.94318771362305 859.2734985351562 C 33.55258941650391 860.377197265625 35.89616775512695 861.9573364257812 37.90883636474609 863.969970703125 C 39.9214973449707 865.982666015625 41.50161743164062 868.3262329101562 42.60530853271484 870.9356689453125 C 43.74785614013672 873.636962890625 44.32717895507812 876.5067749023438 44.32717895507812 879.46533203125 C 44.32717895507812 880.39013671875 44.30127716064453 881.0799560546875 44.17489624023438 881.4405517578125 C 44.10760116577148 881.632568359375 44.05339813232422 881.7051391601562 43.7487907409668 881.7051391601562 C 43.74868011474609 881.7051391601562 43.74858856201172 881.7051391601562 43.74847793579102 881.7051391601562 C 43.30007934570312 881.705078125 42.54866790771484 881.5087280273438 41.50869750976562 881.2369995117188 C 38.47029876708984 880.4430541992188 32.814697265625 878.96533203125 22.28102684020996 878.96533203125 C 11.10504722595215 878.96533203125 5.411847591400146 880.550048828125 2.675837516784668 881.3115844726562 C 1.809227585792542 881.5527954101562 1.183087587356567 881.7271118164062 0.8351075649261475 881.7271118164062 Z" stroke="none"/>
        <path d="M 1.045193552970886 881.2064819335938 C 1.382077932357788 881.1527099609375 1.928420424461365 881.0006103515625 2.541757583618164 880.8298950195312 C 5.299117565155029 880.0623779296875 11.03675746917725 878.46533203125 22.28102684020996 878.46533203125 C 32.8789176940918 878.46533203125 38.57496643066406 879.9536743164062 41.63507843017578 880.7532348632812 C 42.58330917358398 881.0009765625 43.3359375 881.1976318359375 43.72693634033203 881.2048950195312 C 43.82717895507812 880.820068359375 43.82717895507812 879.8189086914062 43.82717895507812 879.46533203125 C 43.82717895507812 876.5740356445312 43.26114654541016 873.769775390625 42.14479827880859 871.1304321289062 C 41.06632614135742 868.5806274414062 39.52218627929688 866.2904663085938 37.55527877807617 864.3235473632812 C 35.5883674621582 862.3566284179688 33.2982063293457 860.8125 30.74841690063477 859.7340087890625 C 28.10908699035645 858.61767578125 25.30484771728516 858.0516357421875 22.41358757019043 858.0516357421875 C 19.5223274230957 858.0516357421875 16.71808815002441 858.61767578125 14.07875728607178 859.7340087890625 C 11.52896785736084 860.8125 9.238807678222656 862.3566284179688 7.271897792816162 864.3235473632812 C 5.30498743057251 866.2904663085938 3.760847568511963 868.5806274414062 2.682377576828003 871.1304321289062 C 1.566027522087097 873.769775390625 0.9999975562095642 876.5740356445312 0.9999975562095642 879.46533203125 C 0.9999975562095642 880.110595703125 0.9999983310699463 880.8234252929688 1.045193552970886 881.2064819335938 M 0.8351075649261475 882.2271118164062 C 0.005092299077659845 882.2271118164062 -2.429809683235362e-06 881.5365600585938 -2.429809683235362e-06 879.46533203125 C -2.429809683235362e-06 867.0865478515625 10.03490734100342 857.0516357421875 22.41358757019043 857.0516357421875 C 34.79226684570312 857.0516357421875 44.82717895507812 867.0865478515625 44.82717895507812 879.46533203125 C 44.82717895507812 885.6300048828125 43.7303466796875 879.4653930664062 22.28102684020996 879.46533203125 C 7.456215381622314 879.46533203125 2.495290040969849 882.2271118164062 0.8351075649261475 882.2271118164062 Z" stroke="none" fill="#707070"/>
      </g>
    </g>
  </g>
</svg>
