<svg xmlns="http://www.w3.org/2000/svg" xmlns:xlink="http://www.w3.org/1999/xlink" width="112.619" height="47.633" viewBox="0 0 112.619 47.633">
  <defs>
    <clipPath id="clip-path">
      <rect id="Rectangle_839" data-name="Rectangle 839" width="112.619" height="47.633" fill="#fff"/>
    </clipPath>
  </defs>
  <g id="Group_1002" data-name="Group 1002" clip-path="url(#clip-path)">
    <path id="Path_1144" data-name="Path 1144" d="M27.574,69.831c5.388-2.487,6.217-8.52,6.217-8.52C34.873,49.442,27.9,44.123,27.9,44.123s-11.144-9.8-17.315,4.11C7.906,54.26,8.4,58.565,9.814,61.51h0a14.556,14.556,0,0,0,4.384,5.1l-.707-.218a8.626,8.626,0,0,1-4.652-3.4q-.091-.136-.174-.27l-.018-.029A10.619,10.619,0,0,1,7.4,59.361a9.54,9.54,0,0,1-.113-3.29,23.614,23.614,0,0,1,1.364-5.259c.722-1.684,1.228-2.707,1.5-3.513a4.2,4.2,0,0,0,.2-1.952,2.032,2.032,0,0,0-2.232-2,3.6,3.6,0,0,0-2.327.976A19.567,19.567,0,0,0,2.178,49.6,20.008,20.008,0,0,0,.025,57.718c-.2,4.438.692,10.8,6.6,14.232,9.671,5.618,17.2.6,17.2.6,1.848.927,3.111,1.468,3.111,1.468,2.216.981,6.442,2.947,10.9,3.275,3.1.228,7.3.225,10.517-4.15,4.369-5.951,1.7-8.519,1.7-8.519-10.085,9.763-22.473,5.2-22.473,5.2M17.64,64.766a13.743,13.743,0,0,1-1.523-1.141L15.98,63.5l-.017-.005c-4.693-4.189-3.5-9.586-3.142-11.355A13.2,13.2,0,0,1,15,47.894a5.925,5.925,0,0,1,8.73-.4,5.829,5.829,0,0,1,.852,1.266c2.712,5.619-1.05,14.362-6.94,16" transform="translate(0 -29.741)" fill="#fff"/>
    <path id="Path_1145" data-name="Path 1145" d="M142,89.381a4.737,4.737,0,0,0,4.685-3.207.008.008,0,0,1,.015,0c.023.24.241,1.474,2.311,1.825a1.488,1.488,0,0,0,1.867-1.233,1.849,1.849,0,0,0-.286-1.205,12.845,12.845,0,0,1-1.582-7.751c.3-4.687-.881-4.585-.881-4.585s-.851-.124-1.33,1.166a10.7,10.7,0,0,0-.312,3.441,11.9,11.9,0,0,1-.182,2.806c-.657,3.359-2.321,3.6-2.321,3.6s-3.4.622-2.884-2.66a16.938,16.938,0,0,0,.123-4.686,1.883,1.883,0,0,0-.969-1.452,1.287,1.287,0,0,0-1.122-.074,1.411,1.411,0,0,0-.8,1.67c.619,2.386.14,7.341.14,7.341s-.207,4.939,3.523,5.008" transform="translate(-100.875 -53.412)" fill="#fff"/>
    <path id="Path_1146" data-name="Path 1146" d="M229.2,35.615s2.809-7.506-1.8-8.381-6.585,1.8-15.473,8.013a32.2,32.2,0,0,1-4.66,2.768c-.66-1.606-1.341-3.233-2.063-4.748-1.492-3.131-2.729-4.547-3.56-5.187a1.389,1.389,0,0,0-1.959.246,7.827,7.827,0,0,0-1.387,3.732,66.465,66.465,0,0,1-1.489,8.2c-.171.779-.36,1.553-.6,2.316-.813,2.629-2.808,9.992.332,10.03,3.822.046,4.835-9.052,4.835-9.052.012-.149.024-.295.036-.438a6.4,6.4,0,0,0,3.464.372,4.324,4.324,0,0,0,.962-.241l1.2,3.694s1.566,5.342,5.158,6.862,3.684-1.888,3.684-1.888.346-2-3.039-3.776c-1.42-.744-2.716-3.3-4.05-6.426a74.014,74.014,0,0,0,7.433-5.6,14.608,14.608,0,0,1,2-1.418c-.013.1-2.226,17.732,2.354,16.63s1.369-9.691.932-12.952a13.166,13.166,0,0,1-.029-5.045c5.476-1.431,7.708,2.282,7.708,2.282m-27.415,3.718c.627-5.471,1.074-4.019,1.074-4.019.627,1.505,1.125,2.751,1.519,3.772a7.477,7.477,0,0,1-2.593.247" transform="translate(-142.126 -19.747)" fill="#fff"/>
    <path id="Path_1147" data-name="Path 1147" d="M328.775,36.722c-4.421-9.9-11.674,7.549-11.674,7.549s-3.316-4.766-3.9,2.191,1.381,10.485,1.381,10.485q.1.127.2.232a1.6,1.6,0,0,0,2.745-.919c.072-.609.187-1.533.366-2.905a31.371,31.371,0,0,1,1.554-7.288c2.549-8.375,9.325-9.345,9.325-9.345" transform="translate(-228.383 -24.57)" fill="#fff"/>
    <path id="Path_1148" data-name="Path 1148" d="M359.516,48.29c1.381-.75,4.9,2.3,4.9,2.3.034-3.178-3.143-4.835-3.143-4.835-5.388-3.143-10.776,2.97-10.776,2.97q.137-.067.273-.124a5.319,5.319,0,0,1,6.294,1.851,6.2,6.2,0,0,1,.134,6.907,1.624,1.624,0,0,1-.1.144c-3.409,4.691-10.776.561-8.472-4.761a10,10,0,0,1,1.6-2.533c-2.694-.622-6.666,5.008-4.317,9.049a8.439,8.439,0,0,0,6.562,4.179s7.391.725,8.669-6.044c1.317-6.979-1.623-9.108-1.623-9.108" transform="translate(-251.802 -32.723)" fill="#fff"/>
    <path id="Path_1149" data-name="Path 1149" d="M146.214.005a10.762,10.762,0,0,1-3.279,1.483c-.425.111-1.789.373-2.211.495-11.622,3.353-9.3,14.624-8.769,16.672a7.591,7.591,0,0,0,3.45-3.892,12.772,12.772,0,0,1,2.926-4.722l.022-.021-.022.021a8.418,8.418,0,0,0-2.064,3.9c-.659,2.712-1.6,4.089-2.9,4.916,13.318-1.652,12.251-15.591,12.236-15.94a6.545,6.545,0,0,1,.656-2.873.031.031,0,0,0-.048-.037" transform="translate(-95.859 0)" fill="#fff"/>
  </g>
</svg>
