<svg xmlns="http://www.w3.org/2000/svg" xmlns:xlink="http://www.w3.org/1999/xlink" width="118.73" height="29.255" viewBox="0 0 118.73 29.255">
  <defs>
    <clipPath id="clip-path">
      <rect x="-1" width="11.945" height="27.997" fill="none"/>
    </clipPath>
  </defs>
  <g id="Group_1000" data-name="Group 1000" transform="translate(18225.365 -9789.745)">
    <g id="Group_479" data-name="Group 479" transform="translate(-18225.365 9791.003)">
      <path id="Polygon_20" data-name="Polygon 20" d="M10.773,0,21.547,18.674H0Z" transform="translate(0 3.8)" fill="#a0a0a0"/>
      <path id="Polygon_21" data-name="Polygon 21" d="M10.773,0,21.547,18.674H0Z" transform="translate(16.172 0) rotate(60)" fill="#a0a0a0"/>
    </g>
    <g id="Group_478" data-name="Group 478" transform="translate(-18198.42 9789.745)">
      <path id="Polygon_22" data-name="Polygon 22" d="M10.773,0,21.547,18.674H0Z" transform="translate(0 5.058)" fill="#a0a0a0"/>
      <path id="Polygon_23" data-name="Polygon 23" d="M10.773,0,21.547,18.674H0Z" transform="translate(16.172 0) rotate(60)" fill="#a0a0a0"/>
    </g>
    <g id="Group_477" data-name="Group 477" transform="translate(-18171.473 9789.745)">
      <path id="Polygon_24" data-name="Polygon 24" d="M10.773,0,21.547,18.674H0Z" transform="translate(0 3.8)" fill="#a0a0a0"/>
      <path id="Polygon_25" data-name="Polygon 25" d="M10.773,0,21.547,18.674H0Z" transform="translate(16.172 0) rotate(60)" fill="#a0a0a0"/>
    </g>
    <g id="Group_476" data-name="Group 476" transform="translate(-18144.527 9789.745)">
      <path id="Polygon_26" data-name="Polygon 26" d="M10.773,0,21.547,18.674H0Z" transform="translate(0 3.8)" fill="#a0a0a0"/>
      <path id="Polygon_27" data-name="Polygon 27" d="M10.773,0,21.547,18.674H0Z" transform="translate(16.172 0) rotate(60)" fill="#a0a0a0"/>
    </g>
    <g id="Scroll_Group_4" data-name="Scroll Group 4" transform="translate(-18117.58 9789.745)" clip-path="url(#clip-path)" style="isolation: isolate">
      <g id="Group_999" data-name="Group 999" transform="translate(18117.58 -9789.745)">
        <path id="Polygon_28" data-name="Polygon 28" d="M10.773,0,21.547,18.674H0Z" transform="translate(-18117.58 9793.545)" fill="#a0a0a0"/>
        <path id="Polygon_29" data-name="Polygon 29" d="M10.773,0,21.547,18.674H0Z" transform="translate(-18101.408 9789.745) rotate(60)" fill="#a0a0a0"/>
        <path id="Path_1143" data-name="Path 1143" d="M-18106.807,9793.545" fill="none"/>
      </g>
    </g>
  </g>
</svg>
