<svg id="Group_1477" data-name="Group 1477" xmlns="http://www.w3.org/2000/svg" width="101.695" height="17.137" viewBox="0 0 101.695 17.137">
  <path id="Path_1058" data-name="Path 1058" d="M13.893,6.947a6.946,6.946,0,1,0-8.032,6.862V8.955H4.1V6.947H5.861V5.416a2.451,2.451,0,0,1,2.624-2.7,10.678,10.678,0,0,1,1.555.136V4.559H9.164A1,1,0,0,0,8.032,5.643v1.3H9.958L9.65,8.955H8.032v4.854a6.948,6.948,0,0,0,5.861-6.862" transform="translate(43.638 2.594)" fill="#fff"/>
  <path id="Path_970" data-name="Path 970" d="M430.466,49.073c2.055,0,2.3.008,3.109.045a4.255,4.255,0,0,1,1.429.265,2.548,2.548,0,0,1,1.46,1.46,4.258,4.258,0,0,1,.265,1.429c.037.811.045,1.055.045,3.109s-.008,2.3-.045,3.109a4.258,4.258,0,0,1-.265,1.429A2.548,2.548,0,0,1,435,61.38a4.26,4.26,0,0,1-1.429.265c-.811.037-1.055.045-3.109.045s-2.3-.008-3.109-.045a4.26,4.26,0,0,1-1.429-.265,2.548,2.548,0,0,1-1.46-1.46,4.257,4.257,0,0,1-.265-1.429c-.037-.811-.045-1.055-.045-3.109s.008-2.3.045-3.109a4.257,4.257,0,0,1,.265-1.429,2.548,2.548,0,0,1,1.46-1.46,4.255,4.255,0,0,1,1.429-.265c.811-.037,1.055-.045,3.109-.045m0-1.386c-2.09,0-2.352.009-3.172.046a5.649,5.649,0,0,0-1.868.358,3.934,3.934,0,0,0-2.25,2.25,5.648,5.648,0,0,0-.358,1.868c-.037.821-.046,1.083-.046,3.173s.009,2.352.046,3.173a5.648,5.648,0,0,0,.358,1.868,3.934,3.934,0,0,0,2.25,2.25,5.649,5.649,0,0,0,1.868.358c.821.037,1.083.046,3.172.046s2.352-.009,3.172-.046a5.648,5.648,0,0,0,1.868-.358,3.934,3.934,0,0,0,2.25-2.25,5.65,5.65,0,0,0,.358-1.868c.037-.821.046-1.083.046-3.173s-.009-2.352-.046-3.173a5.65,5.65,0,0,0-.358-1.868,3.934,3.934,0,0,0-2.25-2.25,5.648,5.648,0,0,0-1.868-.358c-.821-.037-1.083-.046-3.172-.046" transform="translate(-422.771 -47.687)" fill="#fff"/>
  <path id="Path_1054" data-name="Path 1054" d="M447.4,68.362a3.951,3.951,0,1,0,3.951,3.951,3.951,3.951,0,0,0-3.951-3.951m0,6.516a2.565,2.565,0,1,1,2.565-2.565,2.565,2.565,0,0,1-2.565,2.565" transform="translate(-439.548 -64.619)" fill="#fff"/>
  <path id="Path_1059" data-name="Path 1059" d="M877.571,71.2a9.373,9.373,0,0,0,9.437-9.437q0-.215-.009-.429a6.752,6.752,0,0,0,1.655-1.717,6.619,6.619,0,0,1-1.9.522,3.328,3.328,0,0,0,1.459-1.835,6.648,6.648,0,0,1-2.106.805,3.32,3.32,0,0,0-5.652,3.025,9.416,9.416,0,0,1-6.837-3.465,3.319,3.319,0,0,0,1.027,4.428,3.294,3.294,0,0,1-1.5-.415c0,.014,0,.028,0,.042a3.318,3.318,0,0,0,2.661,3.252,3.313,3.313,0,0,1-1.5.057,3.32,3.32,0,0,0,3.1,2.3,6.655,6.655,0,0,1-4.119,1.42,6.733,6.733,0,0,1-.791-.046,9.389,9.389,0,0,0,5.084,1.49" transform="translate(-851.057 -55.812)" fill="#fff"/>
  <path id="Path_1060" data-name="Path 1060" d="M436.749,257.545a2.107,2.107,0,0,0-1.488-1.488,61.63,61.63,0,0,0-13.15,0,2.107,2.107,0,0,0-1.488,1.488,23.5,23.5,0,0,0,0,8.1,2.107,2.107,0,0,0,1.488,1.488,61.63,61.63,0,0,0,13.15,0,2.107,2.107,0,0,0,1.488-1.488,23.5,23.5,0,0,0,0-8.1M427,264.12v-5.049l4.372,2.524Z" transform="translate(-356.699 -252.097)" fill="#fff"/>
  <path id="Path_1061" data-name="Path 1061" d="M7.633,0A7.635,7.635,0,0,0,4.85,14.744a7.349,7.349,0,0,1,.025-2.192c.138-.6.892-3.794.892-3.794a2.781,2.781,0,0,1-.226-1.131c0-1.062.616-1.853,1.382-1.853A.959.959,0,0,1,7.89,6.847a15.091,15.091,0,0,1-.635,2.544,1.11,1.11,0,0,0,1.131,1.382c1.357,0,2.4-1.432,2.4-3.493a3.012,3.012,0,0,0-3.191-3.1A3.3,3.3,0,0,0,4.146,7.488a2.979,2.979,0,0,0,.565,1.74.227.227,0,0,1,.05.22c-.056.239-.188.76-.214.867-.031.138-.113.17-.258.1A3.42,3.42,0,0,1,2.739,7.457c0-2.406,1.746-4.617,5.044-4.617a4.48,4.48,0,0,1,4.705,4.41C12.488,9.882,10.83,12,8.531,12a2.028,2.028,0,0,1-1.746-.879l-.477,1.816a8.317,8.317,0,0,1-.949,2A7.639,7.639,0,1,0,7.633,0" transform="translate(86.443 1.86)" fill="#fff"/>
  <path id="Path_1083" data-name="Path 1083" d="M447.4,68.362a3.951,3.951,0,1,0,3.951,3.951,3.951,3.951,0,0,0-3.951-3.951m0,6.516a2.565,2.565,0,1,1,2.565-2.565,2.565,2.565,0,0,1-2.565,2.565" transform="translate(-439.548 -64.619)" fill="#fff"/>
</svg>
