<svg id="Group_1641" data-name="Group 1641" xmlns="http://www.w3.org/2000/svg" width="104.547" height="104.548" viewBox="0 0 104.547 104.548">
  <g id="Ellipse_47" data-name="Ellipse 47" transform="translate(0 0)" fill="none" stroke="#fff" stroke-width="3">
    <circle cx="52.274" cy="52.274" r="52.274" stroke="none"/>
    <circle cx="52.274" cy="52.274" r="50.774" fill="none"/>
  </g>
  <g id="Ellipse_48" data-name="Ellipse 48" transform="translate(49.522 11.005)" fill="#fff" stroke="#fff" stroke-width="1">
    <circle cx="2.751" cy="2.751" r="2.751" stroke="none"/>
    <circle cx="2.751" cy="2.751" r="2.251" fill="none"/>
  </g>
  <g id="Ellipse_49" data-name="Ellipse 49" transform="translate(44.02 90.791)" fill="#fff" stroke="#fff" stroke-width="1">
    <ellipse cx="4.127" cy="2.751" rx="4.127" ry="2.751" stroke="none"/>
    <ellipse cx="4.127" cy="2.751" rx="3.627" ry="2.251" fill="none"/>
  </g>
  <g id="Ellipse_50" data-name="Ellipse 50" transform="translate(90.791 49.522)" fill="#fff" stroke="#fff" stroke-width="1">
    <circle cx="2.751" cy="2.751" r="2.751" stroke="none"/>
    <circle cx="2.751" cy="2.751" r="2.251" fill="none"/>
  </g>
  <g id="Ellipse_51" data-name="Ellipse 51" transform="translate(8.254 49.522)" fill="#fff" stroke="#fff" stroke-width="1">
    <circle cx="2.751" cy="2.751" r="2.751" stroke="none"/>
    <circle cx="2.751" cy="2.751" r="2.251" fill="none"/>
  </g>
  <g id="Ellipse_52" data-name="Ellipse 52" transform="translate(13.756 33.015)" fill="#fff" stroke="#fff" stroke-width="1">
    <circle cx="2.751" cy="2.751" r="2.751" stroke="none"/>
    <circle cx="2.751" cy="2.751" r="2.251" fill="none"/>
  </g>
  <g id="Ellipse_53" data-name="Ellipse 53" transform="translate(27.512 16.507)" fill="#fff" stroke="#fff" stroke-width="1">
    <ellipse cx="2.751" cy="4.127" rx="2.751" ry="4.127" stroke="none"/>
    <ellipse cx="2.751" cy="4.127" rx="2.251" ry="3.627" fill="none"/>
  </g>
  <g id="Ellipse_54" data-name="Ellipse 54" transform="translate(71.532 16.507)" fill="#fff" stroke="#fff" stroke-width="1">
    <ellipse cx="2.751" cy="4.127" rx="2.751" ry="4.127" stroke="none"/>
    <ellipse cx="2.751" cy="4.127" rx="2.251" ry="3.627" fill="none"/>
  </g>
  <g id="Ellipse_55" data-name="Ellipse 55" transform="translate(82.537 33.015)" fill="#fff" stroke="#fff" stroke-width="1">
    <ellipse cx="4.127" cy="2.751" rx="4.127" ry="2.751" stroke="none"/>
    <ellipse cx="4.127" cy="2.751" rx="3.627" ry="2.251" fill="none"/>
  </g>
  <g id="Ellipse_56" data-name="Ellipse 56" transform="translate(79.786 68.781)" fill="#fff" stroke="#fff" stroke-width="1">
    <ellipse cx="4.127" cy="2.751" rx="4.127" ry="2.751" stroke="none"/>
    <ellipse cx="4.127" cy="2.751" rx="3.627" ry="2.251" fill="none"/>
  </g>
  <g id="Ellipse_57" data-name="Ellipse 57" transform="translate(66.03 82.537)" fill="#fff" stroke="#fff" stroke-width="1">
    <ellipse cx="2.751" cy="4.127" rx="2.751" ry="4.127" stroke="none"/>
    <ellipse cx="2.751" cy="4.127" rx="2.251" ry="3.627" fill="none"/>
  </g>
  <g id="Ellipse_58" data-name="Ellipse 58" transform="translate(24.761 82.537)" fill="#fff" stroke="#fff" stroke-width="1">
    <circle cx="4.127" cy="4.127" r="4.127" stroke="none"/>
    <circle cx="4.127" cy="4.127" r="3.627" fill="none"/>
  </g>
  <g id="Ellipse_59" data-name="Ellipse 59" transform="translate(13.756 71.532)" fill="#fff" stroke="#fff" stroke-width="1">
    <ellipse cx="4.127" cy="2.751" rx="4.127" ry="2.751" stroke="none"/>
    <ellipse cx="4.127" cy="2.751" rx="3.627" ry="2.251" fill="none"/>
  </g>
  <line id="Line_47" data-name="Line 47" y1="29.871" transform="translate(50.14 22.403)" fill="none" stroke="#fff" stroke-width="1"/>
  <line id="Line_48" data-name="Line 48" x1="17.069" y2="8.534" transform="translate(50.14 43.739)" fill="none" stroke="#fff" stroke-width="1"/>
  <g id="Ellipse_60" data-name="Ellipse 60" transform="translate(46.771 49.522)" fill="#fff" stroke="#fff" stroke-width="1">
    <circle cx="2.751" cy="2.751" r="2.751" stroke="none"/>
    <circle cx="2.751" cy="2.751" r="2.251" fill="none"/>
  </g>
</svg>
